<svg width="20" height="20" viewBox="0 0 20 20" fill="none" xmlns="http://www.w3.org/2000/svg">
<path d="M10 9.25C7.3075 9.25 5.125 11.77 5.125 14.875V17C5.125 17.2761 5.34886 17.5 5.625 17.5H14.375C14.6511 17.5 14.875 17.2761 14.875 17V14.875C14.875 11.77 12.6925 9.25 10 9.25Z" fill="white"/>
<path d="M1 15.25V17C1 17.2761 1.22386 17.5 1.5 17.5H3.125C3.40114 17.5 3.625 17.2761 3.625 17V14.875C3.625 13.776 3.76161 12.7454 3.99973 11.8748C4.10999 11.4717 3.74736 11.0809 3.37892 11.2781C1.96404 12.0355 1 13.5305 1 15.25Z" fill="white"/>
<path d="M16.875 17.5H18.5C18.7761 17.5 19 17.2761 19 17V15.25C19 13.5305 18.036 12.0355 16.6211 11.2781C16.2526 11.0809 15.89 11.4717 16.0003 11.8748C16.2384 12.7454 16.375 13.776 16.375 14.875V17C16.375 17.2761 16.5989 17.5 16.875 17.5Z" fill="white"/>
<path d="M11.8562 3.26885C11.3639 2.77656 10.6962 2.5 10 2.5C9.30381 2.5 8.63613 2.77656 8.14384 3.26885C7.65156 3.76113 7.375 4.42881 7.375 5.125C7.375 5.82119 7.65156 6.48887 8.14384 6.98116C8.63613 7.47344 9.30381 7.75 10 7.75C10.6962 7.75 11.3639 7.47344 11.8562 6.98116C12.3484 6.48887 12.625 5.82119 12.625 5.125C12.625 4.42881 12.3484 3.76113 11.8562 3.26885Z" fill="white"/>
<path d="M5.6134 4.54623C5.34744 4.435 5.05672 4.375 4.75 4.375C4.15326 4.375 3.58097 4.61205 3.15901 5.03401C2.73705 5.45597 2.5 6.02826 2.5 6.625C2.5 7.22174 2.73705 7.79403 3.15901 8.21599C3.58097 8.63795 4.15326 8.875 4.75 8.875C5.50518 8.875 6.16995 8.50203 6.57752 7.93268C6.69114 7.77396 6.6661 7.56258 6.55885 7.39948C6.09754 6.69799 5.8535 5.86248 5.87657 5.00794C5.88181 4.81362 5.79274 4.62124 5.6134 4.54623Z" fill="white"/>
<path d="M16.841 5.03401C16.419 4.61205 15.8467 4.375 15.25 4.375C14.9431 4.375 14.6522 4.43507 14.3862 4.54642C14.2071 4.62137 14.118 4.8134 14.1231 5.00747C14.1456 5.85567 13.9075 6.69074 13.4412 7.39953C13.3339 7.56258 13.3088 7.77395 13.4225 7.93265C13.83 8.50202 14.4948 8.875 15.25 8.875C15.8467 8.875 16.419 8.63795 16.841 8.21599C17.2629 7.79403 17.5 7.22174 17.5 6.625C17.5 6.02826 17.2629 5.45597 16.841 5.03401Z" fill="white"/>
</svg>
